<svg width="41" height="9" viewBox="0 0 41 9" fill="none" xmlns="http://www.w3.org/2000/svg">
<rect width="41" height="9" fill="#1E1E1E"/>
<path d="M2.88 1.728H0.840005C0.608005 1.728 0.408005 1.648 0.240005 1.488C0.0800049 1.32 4.89131e-06 1.12 4.89131e-06 0.887997C4.89131e-06 0.655998 0.0800049 0.455998 0.240005 0.287998C0.408005 0.127998 0.608005 0.0479975 0.840005 0.0479975H6.6C6.83201 0.0479975 7.03201 0.127998 7.20001 0.287998C7.36001 0.455998 7.44001 0.655998 7.44001 0.887997C7.44001 1.12 7.36001 1.32 7.20001 1.488C7.03201 1.648 6.83201 1.728 6.6 1.728H4.56001V7.608C4.56001 7.84 4.48001 8.036 4.32 8.196C4.152 8.364 3.95201 8.448 3.72001 8.448C3.48801 8.448 3.29201 8.364 3.13201 8.196C2.964 8.036 2.88 7.84 2.88 7.608V1.728ZM9.58847 5.088H11.9045L10.7525 2.76L9.58847 5.088ZM11.4965 0.503997L14.8565 7.224C14.9605 7.432 14.9765 7.648 14.9045 7.872C14.8325 8.088 14.6925 8.248 14.4845 8.352C14.3645 8.416 14.2405 8.448 14.1125 8.448C13.7605 8.448 13.5085 8.292 13.3565 7.98L12.7445 6.768H8.74847L8.13647 7.98C8.03247 8.188 7.87247 8.328 7.65647 8.4C7.43247 8.472 7.21647 8.456 7.00847 8.352C6.80047 8.248 6.66047 8.088 6.58847 7.872C6.51647 7.648 6.53247 7.432 6.63647 7.224L9.99647 0.503997C10.1405 0.223998 10.3925 0.0839977 10.7525 0.0839977C11.1045 0.0839977 11.3525 0.223998 11.4965 0.503997ZM17.6578 4.368H20.1778C20.5298 4.368 20.8418 4.24 21.1138 3.984C21.3698 3.712 21.4978 3.4 21.4978 3.048C21.4978 2.68 21.3698 2.368 21.1138 2.112C20.8418 1.856 20.5298 1.728 20.1778 1.728H17.6578V4.368ZM15.9778 0.887997C15.9778 0.655998 16.0618 0.455998 16.2298 0.287998C16.3898 0.127998 16.5858 0.0479975 16.8178 0.0479975H20.1778C21.0098 0.0479975 21.7178 0.339998 22.3018 0.923998C22.8858 1.508 23.1778 2.216 23.1778 3.048C23.1778 3.88 22.8858 4.588 22.3018 5.172C21.7178 5.756 21.0098 6.048 20.1778 6.048H17.6578V7.608C17.6578 7.84 17.5778 8.036 17.4178 8.196C17.2498 8.364 17.0498 8.448 16.8178 8.448C16.5858 8.448 16.3898 8.364 16.2298 8.196C16.0618 8.036 15.9778 7.84 15.9778 7.608V0.887997ZM26.0602 4.368H28.5802C28.9322 4.368 29.2442 4.24 29.5162 3.984C29.7722 3.712 29.9002 3.4 29.9002 3.048C29.9002 2.68 29.7722 2.368 29.5162 2.112C29.2442 1.856 28.9322 1.728 28.5802 1.728H26.0602V4.368ZM24.3802 0.887997C24.3802 0.655998 24.4642 0.455998 24.6322 0.287998C24.7922 0.127998 24.9882 0.0479975 25.2202 0.0479975H28.5802C29.4122 0.0479975 30.1202 0.339998 30.7042 0.923998C31.2882 1.508 31.5802 2.216 31.5802 3.048C31.5802 3.88 31.2882 4.588 30.7042 5.172C30.1202 5.756 29.4122 6.048 28.5802 6.048H26.0602V7.608C26.0602 7.84 25.9802 8.036 25.8202 8.196C25.6522 8.364 25.4522 8.448 25.2202 8.448C24.9882 8.448 24.7922 8.364 24.6322 8.196C24.4642 8.036 24.3802 7.84 24.3802 7.608V0.887997ZM39.0465 0.0599973C39.2785 0.0199974 39.4905 0.0679975 39.6825 0.203998C39.8665 0.339998 39.9785 0.523998 40.0185 0.755998C40.0505 0.987998 39.9985 1.196 39.8625 1.38L36.9105 5.484V7.608C36.9105 7.84 36.8265 8.036 36.6585 8.196C36.4985 8.364 36.3025 8.448 36.0705 8.448C35.8385 8.448 35.6385 8.364 35.4705 8.196C35.3105 8.036 35.2305 7.84 35.2305 7.608V5.484L32.2665 1.38C32.1305 1.196 32.0825 0.987998 32.1225 0.755998C32.1545 0.523998 32.2665 0.339998 32.4585 0.203998C32.6425 0.0679975 32.8505 0.0199974 33.0825 0.0599973C33.3065 0.0999978 33.4865 0.211998 33.6225 0.395998L36.0705 3.768L38.5065 0.395998C38.6425 0.211998 38.8225 0.0999978 39.0465 0.0599973Z" fill="white"/>
</svg>
