<svg width="350" height="120" viewBox="0 0 350 120" fill="none" xmlns="http://www.w3.org/2000/svg">
<path d="M25.6 91.648V16.384H9.05991e-06V0H68.48V16.384H42.88V91.648H25.6ZM107.752 84.992H106.728C104.765 87.3813 102.376 89.4293 99.56 91.136C96.8293 92.8427 93.288 93.696 88.936 93.696C85.6933 93.696 82.6213 93.1413 79.72 92.032C76.904 91.008 74.4293 89.5573 72.296 87.68C70.1627 85.8027 68.4987 83.5413 67.304 80.896C66.1093 78.2507 65.512 75.3493 65.512 72.192C65.512 68.9493 66.152 66.048 67.432 63.488C68.712 60.8427 70.504 58.5813 72.808 56.704C75.112 54.8267 77.8 53.4187 80.872 52.48C84.0293 51.456 87.4427 50.944 91.112 50.944C95.208 50.944 98.5787 51.2853 101.224 51.968C103.869 52.5653 106.045 53.2053 107.752 53.888V51.968C107.752 48.64 106.429 45.9093 103.784 43.776C101.139 41.5573 97.8533 40.448 93.928 40.448C88.1253 40.448 83.2187 42.88 79.208 47.744L67.048 39.424C73.704 31.0613 82.792 26.88 94.312 26.88C104.04 26.88 111.464 29.184 116.584 33.792C121.704 38.3147 124.264 45.056 124.264 54.016V91.648H107.752V84.992ZM107.752 66.176C105.789 65.2373 103.741 64.512 101.608 64C99.56 63.4027 97.2987 63.104 94.824 63.104C90.8133 63.104 87.6987 64 85.48 65.792C83.3467 67.4987 82.28 69.632 82.28 72.192C82.28 74.752 83.304 76.8 85.352 78.336C87.4853 79.872 89.9173 80.64 92.648 80.64C94.8667 80.64 96.9147 80.256 98.792 79.488C100.669 78.6347 102.248 77.568 103.528 76.288C104.893 74.9227 105.917 73.3867 106.6 71.68C107.368 69.888 107.752 68.0533 107.752 66.176ZM137.084 28.928H152.828V36.48H153.852C155.388 33.8347 157.777 31.5733 161.02 29.696C164.263 27.8187 168.273 26.88 173.052 26.88C177.063 26.88 180.86 27.7333 184.444 29.44C188.113 31.0613 191.313 33.3653 194.044 36.352C196.86 39.2533 199.079 42.752 200.7 46.848C202.321 50.944 203.132 55.424 203.132 60.288C203.132 65.152 202.321 69.632 200.7 73.728C199.079 77.824 196.86 81.3653 194.044 84.352C191.313 87.2533 188.113 89.5573 184.444 91.264C180.86 92.8853 177.063 93.696 173.052 93.696C168.273 93.696 164.263 92.7573 161.02 90.88C157.777 89.0027 155.388 86.7413 153.852 84.096H152.828L153.852 93.056V119.296H137.084V28.928ZM169.596 78.208C171.815 78.208 173.905 77.7813 175.868 76.928C177.916 76.0747 179.708 74.88 181.244 73.344C182.78 71.808 184.017 69.9307 184.956 67.712C185.895 65.4933 186.364 63.0187 186.364 60.288C186.364 57.5573 185.895 55.0827 184.956 52.864C184.017 50.6453 182.78 48.768 181.244 47.232C179.708 45.696 177.916 44.5013 175.868 43.648C173.905 42.7947 171.815 42.368 169.596 42.368C167.377 42.368 165.244 42.7947 163.196 43.648C161.233 44.416 159.484 45.568 157.948 47.104C156.412 48.64 155.175 50.5173 154.236 52.736C153.297 54.9547 152.828 57.472 152.828 60.288C152.828 63.104 153.297 65.6213 154.236 67.84C155.175 70.0587 156.412 71.936 157.948 73.472C159.484 75.008 161.233 76.2027 163.196 77.056C165.244 77.824 167.377 78.208 169.596 78.208ZM212.084 28.928H227.828V36.48H228.852C230.388 33.8347 232.777 31.5733 236.02 29.696C239.263 27.8187 243.273 26.88 248.052 26.88C252.063 26.88 255.86 27.7333 259.444 29.44C263.113 31.0613 266.313 33.3653 269.044 36.352C271.86 39.2533 274.079 42.752 275.7 46.848C277.321 50.944 278.132 55.424 278.132 60.288C278.132 65.152 277.321 69.632 275.7 73.728C274.079 77.824 271.86 81.3653 269.044 84.352C266.313 87.2533 263.113 89.5573 259.444 91.264C255.86 92.8853 252.063 93.696 248.052 93.696C243.273 93.696 239.263 92.7573 236.02 90.88C232.777 89.0027 230.388 86.7413 228.852 84.096H227.828L228.852 93.056V119.296H212.084V28.928ZM244.596 78.208C246.815 78.208 248.905 77.7813 250.868 76.928C252.916 76.0747 254.708 74.88 256.244 73.344C257.78 71.808 259.017 69.9307 259.956 67.712C260.895 65.4933 261.364 63.0187 261.364 60.288C261.364 57.5573 260.895 55.0827 259.956 52.864C259.017 50.6453 257.78 48.768 256.244 47.232C254.708 45.696 252.916 44.5013 250.868 43.648C248.905 42.7947 246.815 42.368 244.596 42.368C242.377 42.368 240.244 42.7947 238.196 43.648C236.233 44.416 234.484 45.568 232.948 47.104C231.412 48.64 230.175 50.5173 229.236 52.736C228.297 54.9547 227.828 57.472 227.828 60.288C227.828 63.104 228.297 65.6213 229.236 67.84C230.175 70.0587 231.412 71.936 232.948 73.472C234.484 75.008 236.233 76.2027 238.196 77.056C240.244 77.824 242.377 78.208 244.596 78.208ZM306.058 88.576L279.69 28.928H298.762L314.634 66.944H315.53L330.762 28.928H349.45L310.154 119.296H292.106L306.058 88.576Z" fill="white"/>
</svg>
