<svg width="198" height="198" viewBox="0 0 198 198" fill="none" xmlns="http://www.w3.org/2000/svg">
  <!-- White rounded background -->
  <rect x="4" y="0" width="190" height="190" rx="50" ry="50" fill="white"/>
  <!-- Letters scaled to ~65%, centered -->
  <g transform="translate(33, 32) scale(0.65)">
    <path d="M64.672 131V55.736H39.072V39.352H107.552V55.736H81.952V131H64.672Z" fill="#4FBDB7"/>
    <path d="M91.671 68.28H107.415V75.832H108.439C109.975 73.1867 112.364 70.9253 115.607 69.048C118.85 67.1707 122.86 66.232 127.639 66.232C131.65 66.232 135.447 67.0853 139.031 68.792C142.7 70.4133 145.9 72.7173 148.631 75.704C151.447 78.6053 153.666 82.104 155.287 86.2C156.908 90.296 157.719 94.776 157.719 99.64C157.719 104.504 156.908 108.984 155.287 113.08C153.666 117.176 151.447 120.717 148.631 123.704C145.9 126.605 142.7 128.909 139.031 130.616C135.447 132.237 131.65 133.048 127.639 133.048C122.86 133.048 118.85 132.109 115.607 130.232C112.364 128.355 109.975 126.093 108.439 123.448H107.415L108.439 132.408V158.648H91.671V68.28ZM124.183 117.56C126.402 117.56 128.492 117.133 130.455 116.28C132.503 115.427 134.295 114.232 135.831 112.696C137.367 111.16 138.604 109.283 139.543 107.064C140.482 104.845 140.951 102.371 140.951 99.64C140.951 96.9093 140.482 94.4347 139.543 92.216C138.604 89.9973 137.367 88.12 135.831 86.584C134.295 85.048 132.503 83.8533 130.455 83C128.492 82.1467 126.402 81.72 124.183 81.72C121.964 81.72 119.831 82.1467 117.783 83C115.82 83.768 114.071 84.92 112.535 86.456C110.999 87.992 109.762 89.8693 108.823 92.088C107.884 94.3067 107.415 96.824 107.415 99.64C107.415 102.456 107.884 104.973 108.823 107.192C109.762 109.411 110.999 111.288 112.535 112.824C114.071 114.36 115.82 115.555 117.783 116.408C119.831 117.176 121.964 117.56 124.183 117.56Z" fill="#33A7E4"/>
  </g>
</svg>
