<svg xmlns="http://www.w3.org/2000/svg" viewBox="0 0 300 282" width="32" height="32">
<g transform="translate(0,282) scale(0.1,-0.1)" fill="#4ECDC4" stroke="none">
<path d="M533 2735 c-168 -46 -294 -172 -338 -340 -13 -51 -15 -185 -15 -975 0 -978 -1 -956 50 -1064 29 -60 119 -158 175 -191 23 -14 68 -35 101 -47 l59 -23 925 0 c993 0 966 -1 1072 51 68 34 160 124 196 192 64 120 62 85 62 1087 0 856 -1 914 -19 977 -45 166 -171 290 -336 333 -85 22 -1851 22 -1932 0z m1940 -35 c156 -48 274 -176 307 -333 12 -58 10 -1864 -2 -1906 -53 -178 -205 -310 -382 -330 -124 -14 -1803 -6 -1851 9 -84 25 -149 62 -200 114 -51 50 -106 142 -122 202 -13 49 -15 1829 -3 1904 21 122 115 252 221 305 107 55 83 54 1060 54 882 1 909 0 972 -19z"/>
<path d="M1370 2444 c-219 -27 -403 -121 -546 -277 -76 -83 -103 -129 -111 -182 -5 -41 -3 -47 29 -79 32 -32 38 -34 72 -26 46 10 59 21 103 87 41 62 146 161 200 189 21 10 40 22 43 26 3 4 48 21 100 39 86 28 107 31 225 32 145 2 235 -17 344 -73 87 -44 203 -141 255 -213 25 -35 57 -69 71 -75 57 -26 129 20 129 81 0 99 -179 285 -360 375 -177 89 -359 120 -554 96z"/>
<path d="M1390 2134 c-120 -23 -228 -82 -320 -174 -149 -149 -182 -283 -78 -319 48 -17 91 9 130 78 44 77 121 152 192 185 71 34 86 38 160 42 167 9 319 -75 413 -230 54 -88 117 -105 168 -44 33 39 32 73 -6 146 -63 120 -219 249 -359 294 -64 20 -241 33 -300 22z"/>
<path d="M1395 1788 c-29 -16 -65 -57 -76 -85 -5 -13 -9 -179 -10 -368 0 -190 -4 -347 -8 -349 -5 -3 -39 28 -76 70 -76 85 -97 100 -141 107 -62 9 -138 -46 -150 -109 -15 -79 22 -166 149 -354 161 -239 230 -297 412 -346 97 -26 373 -27 455 -2 148 46 253 179 310 394 30 113 38 271 16 327 -27 71 -93 107 -157 85 -29 -10 -33 -8 -68 31 -44 51 -87 64 -151 45 -40 -12 -46 -12 -57 3 -7 9 -13 21 -13 26 0 10 -17 27 -50 50 -28 19 -76 22 -116 7 -15 -6 -29 -9 -31 -7 -2 3 -7 89 -11 193 -9 213 -16 236 -82 273 -41 23 -112 28 -145 9z"/>
</g>
</svg>
